<svg width="433" height="358" viewBox="0 0 433 358" fill="none" xmlns="http://www.w3.org/2000/svg">
<g clip-path="url(#clip0_2_47)">
<path opacity="0.1" d="M44.0052 41.737C48.0425 17.6481 68.8926 0.00158691 93.3175 0.00158691H383C410.614 0.00158691 433 22.3873 433 50.0016V308.002C433 335.616 410.614 358.002 383 358.002H50.0772C19.1619 358.002 -4.34505 330.227 0.765022 299.737L44.0052 41.737Z" fill="#2D9CDB"/>
<g clip-path="url(#clip1_2_47)">
<path d="M362.209 323.124C378.184 329.167 394.028 326.412 397.599 316.973C401.169 307.533 391.114 294.983 375.139 288.94C359.164 282.898 343.319 285.652 339.749 295.092C336.179 304.532 346.234 317.082 362.209 323.124Z" stroke="white" stroke-width="1.5"/>
</g>
<path d="M96.7256 245.712C36.1914 257.919 21.5671 193.795 62.9576 119.691C156.954 -20.8767 305.406 20.8654 328.045 48.6612C350.685 76.457 332.491 109.798 245.252 124.395C158.014 138.991 172.393 230.454 96.7256 245.712Z" stroke="white" stroke-width="1.5"/>
</g>
<defs>
<clipPath id="clip0_2_47">
<rect width="433" height="358" fill="white"/>
</clipPath>
<clipPath id="clip1_2_47">
<rect width="62" height="44" fill="white" transform="translate(338 284)"/>
</clipPath>
</defs>
</svg>
