<svg width="433" height="358" viewBox="0 0 433 358" fill="none" xmlns="http://www.w3.org/2000/svg">
<path opacity="0.1" d="M43.9404 41.7354C47.9777 17.6465 68.8278 0 93.2527 0H382.935C410.549 0 432.935 22.3858 432.935 50V308C432.935 335.614 410.549 358 382.935 358H50.0124C19.0971 358 -4.4098 330.226 0.700267 299.736L43.9404 41.7354Z" fill="#68C9BA"/>
<g clip-path="url(#clip0_4_15)">
<path d="M394.774 101.149C420.498 130.326 390.123 158.5 336.663 159.26C230.376 152.256 206.392 58.1267 214.425 37.0221C222.457 15.9175 246.376 15.3414 281.814 58.3344C317.253 101.327 362.618 64.6765 394.774 101.149Z" stroke="white" stroke-width="1.5"/>
<g clip-path="url(#clip1_4_15)">
<path d="M281.112 70.4621C289.815 73.7539 298.447 72.2534 300.392 67.1106C302.338 61.9678 296.859 55.1302 288.156 51.8383C279.453 48.5465 270.821 50.047 268.875 55.1898C266.93 60.3326 272.409 67.1702 281.112 70.4621Z" stroke="white" stroke-width="1.5"/>
</g>
</g>
<defs>
<clipPath id="clip0_4_15">
<rect width="194" height="138" fill="white" transform="translate(210 22)"/>
</clipPath>
<clipPath id="clip1_4_15">
<rect width="35" height="24" fill="white" transform="translate(267 49)"/>
</clipPath>
</defs>
</svg>
